<?xml version="1.0" standalone="no"?>
<!DOCTYPE svg PUBLIC "-//W3C//DTD SVG 1.1//EN" "http://www.w3.org/Graphics/SVG/1.1/DTD/svg11.dtd" >
<svg xmlns="http://www.w3.org/2000/svg">
<metadata>Generated by IcoMoon</metadata>
<defs>
<font id="tomorrow" horiz-adv-x="1024">
<font-face units-per-em="1024" ascent="960" descent="-64" />
<missing-glyph horiz-adv-x="1024" />
<glyph unicode="&#x20;" horiz-adv-x="512" d="" />
<glyph unicode="&#xe900;" glyph-name="book-search" horiz-adv-x="1049" d="M165.83 790.024v-78.769c0-13.738 11.137-24.874 24.874-24.874h402.138c13.739 0 24.874 11.137 24.874 24.874v78.769c0 13.738-11.135 24.874-24.874 24.874h-402.138c-13.738 0-24.874-11.137-24.874-24.874zM198.996 719.547v62.186h385.555v-62.186h-385.555zM783.547 945.767c0 7.861-7.425 14.233-16.583 14.233h-692.34c-41.213 0-74.623-28.676-74.623-64.049v-889.473l0.109 0.070c2.117-39.318 34.668-70.548 74.514-70.548h692.34c9.158 0 16.583 7.425 16.583 16.583v140.955c0 0.323-0.008 0.647-0.029 0.966 0.021 0.274 0.029 0.551 0.029 0.829v109.796c13.366 2.931 26.122 7.496 38.046 13.47l198.975-198.971c6.476-6.48 16.973-6.48 23.448 0 6.48 6.476 6.48 16.973 0 23.448l-193.805 193.81c37.693 30.003 61.855 76.278 61.855 128.199 0 78.342-55.014 143.837-128.518 159.955v420.726zM74.623 924.417h667.466v-395.691c-87.558-3.267-157.538-75.283-157.538-163.641s69.98-160.374 157.538-163.641v-84.76h-667.466c-18.317 0-33.166 12.744-33.166 28.465v750.802c0 15.722 14.849 28.466 33.166 28.466zM750.381 76.955v-49.749h-661.247c-3.434 0-6.219-2.786-6.219-6.219s2.784-6.219 6.219-6.219h661.247v-45.603h-675.757c-22.896 0-41.457 18.561-41.457 41.457v24.874c0 22.897 18.561 41.457 41.457 41.457h675.757zM878.899 365.085c0-72.124-58.467-130.591-130.591-130.591s-130.591 58.467-130.591 130.591c0 72.124 58.467 130.591 130.591 130.591s130.591-58.467 130.591-130.591z" />
<glyph unicode="&#xe901;" glyph-name="caret" d="M303.538 533.334c-1.798 0-2.698-2.174-1.427-3.445l208.461-208.461c0.787-0.787 2.068-0.787 2.855 0l208.462 208.461c1.271 1.271 0.368 3.445-1.428 3.445h-416.924z" />
<glyph unicode="&#xe902;" glyph-name="check" d="M883.505 691.503c16.661-16.662 16.661-43.677 0-60.34l-469.336-469.334c-16.662-16.661-43.677-16.661-60.339 0l-213.334 213.335c-16.662 16.661-16.662 43.674 0 60.34 16.662 16.661 43.677 16.661 60.34 0l183.163-183.165 439.165 439.163c16.661 16.662 43.674 16.662 60.34 0z" />
<glyph unicode="&#xe903;" glyph-name="chevron" d="M225.83 606.17c16.662 16.662 43.677 16.662 60.34 0l225.83-225.829 225.83 225.829c16.661 16.662 43.679 16.662 60.34 0s16.661-43.677 0-60.34l-256-256c-16.661-16.661-43.678-16.661-60.34 0l-256 256c-16.662 16.662-16.662 43.677 0 60.34z" />
<glyph unicode="&#xe904;" glyph-name="clock" d="M531.321 786.113c0 10.67-8.651 19.321-19.321 19.321s-19.321-8.65-19.321-19.321v-352.99l181.518-193.947c7.289-7.791 19.514-8.197 27.305-0.903 7.791 7.289 8.197 19.514 0.903 27.305l-171.085 182.808v337.727zM1024 448c0 282.77-229.231 512-512 512s-512-229.23-512-512c0-282.769 229.23-512 512-512s512 229.231 512 512zM985.358 448c0-261.429-211.929-473.358-473.358-473.358s-473.358 211.929-473.358 473.358c0 261.429 211.93 473.358 473.358 473.358s473.358-211.93 473.358-473.358z" />
<glyph unicode="&#xe905;" glyph-name="close" horiz-adv-x="1029" d="M802.1 673.83c16.747 16.662 16.747 43.677 0 60.34-16.742 16.662-43.891 16.662-60.633 0l-226.945-225.83-226.943 225.83c-16.744 16.662-43.893 16.662-60.637 0s-16.745-43.678 0-60.34l226.943-225.83-226.943-225.83c-16.745-16.661-16.745-43.679 0-60.34s43.893-16.661 60.637 0l226.943 225.83 226.945-225.83c16.742-16.661 43.891-16.661 60.633 0 16.747 16.661 16.747 43.679 0 60.34l-226.94 225.83 226.94 225.83z" />
<glyph unicode="&#xe906;" glyph-name="ebook" horiz-adv-x="1073" d="M191.023 601.287l0.444 34.865v0.666l44.414 0.222h13.102c1.036 0 2.147 0.148 3.331 0.444 0.888 0.148 1.777 0.222 2.665 0.222 1.036 0.148 1.999 0.37 2.887 0.666s1.629 0.666 2.221 1.11c0.74 0.444 1.406 0.814 1.999 1.11 1.629 1.629 2.517 3.183 2.665 4.664 0.296 0.74 0.444 1.48 0.444 2.221v2.665c0 2.073-0.666 4.145-1.999 6.218-1.629 1.777-3.701 3.035-6.218 3.775-1.629 0.592-3.257 1.036-4.886 1.332-1.629 0.444-3.257 0.666-4.886 0.666-1.629 0.148-3.331 0.222-5.108 0.222s-3.479 0.074-5.108 0.222h-0.888c-5.626 0.148-11.104 0.222-16.433 0.222s-10.956-0.074-16.877-0.222c-3.109 0-5.552-0.074-7.328-0.222h-16.211v-0.222c-0.592 0.148-1.48 0.222-2.665 0.222-2.369 0-4.664-0.666-6.884-1.999-1.184-0.592-2.147-1.332-2.887-2.221-0.592-0.888-1.184-1.925-1.777-3.109-1.48-2.813-2.295-5.7-2.443-8.661 0-1.48-0.074-2.961-0.222-4.441 0-1.332-0.074-2.813-0.222-4.441v-1.11c-0.148-4.886-0.296-9.401-0.444-13.546v-43.748l-0.444-31.978v-17.322c0-0.592-0.074-1.184-0.222-1.777v-5.33c0.148-0.74 0.222-1.48 0.222-2.221l0.444-2.221c0-0.74 0.074-1.555 0.222-2.443 0.148-0.74 0.37-1.48 0.666-2.221 0.148-0.296 0.296-0.518 0.444-0.666s0.296-0.37 0.444-0.666c0-0.444 0.222-0.888 0.666-1.332 0.888-1.777 2.147-3.183 3.775-4.219 2.221-1.48 5.034-2.073 8.439-1.777h14.879c1.777-0.148 4.145-0.222 7.106-0.222 12.436-0.296 24.428-0.296 35.976 0h1.332c1.629 0.148 3.331 0.222 5.108 0.222s3.479 0.074 5.108 0.222c3.701 0 7.106 0.666 10.215 1.999 2.369 0.592 4.441 1.925 6.218 3.997 1.48 1.925 2.221 4.071 2.221 6.44 0.148 0.888 0.148 1.703 0 2.443 0 0.888-0.074 1.703-0.222 2.443-0.444 1.629-1.406 3.183-2.887 4.664-1.184 1.036-2.665 1.851-4.441 2.443-0.888 0.296-1.851 0.444-2.887 0.444-0.888 0.148-1.925 0.37-3.109 0.666-0.888 0.148-1.851 0.222-2.887 0.222h-13.768l-44.192 0.444 0.444 43.526 41.083 0.222h10.437c2.073 0 4.145 0.222 6.218 0.666 1.925 0.148 3.849 0.518 5.774 1.11 2.073 0.444 3.479 1.184 4.219 2.221 1.629 1.332 2.591 2.813 2.887 4.441 0.296 0.74 0.444 1.555 0.444 2.443v2.665c0 2.369-0.74 4.515-2.221 6.44-1.629 1.777-3.701 3.109-6.218 3.997-1.629 0.444-3.257 0.814-4.886 1.11-1.629 0.444-3.331 0.74-5.108 0.888h-5.108c-1.629 0.148-3.331 0.222-5.108 0.222h-1.11c-5.774 0.148-11.030 0.222-15.767 0.222s-10.141-0.074-16.211-0.222h-8.883zM361.092 608.838c-2.517 0.888-5.034 1.036-7.55 0.444h-42.86c-3.405-0.148-6.81-0.222-10.215-0.222-3.257 0.148-6.44-0.444-9.549-1.777-2.517-0.888-4.515-2.591-5.996-5.108-1.332-2.369-1.999-4.812-1.999-7.328 0-2.073 0.444-3.923 1.332-5.552 0.888-1.48 2.147-3.035 3.775-4.664 1.332-1.184 2.739-2.147 4.219-2.887 1.629-0.592 3.331-1.036 5.108-1.332 1.777-0.148 3.553-0.222 5.33-0.222 1.925 0.148 3.775 0.296 5.552 0.444l45.525 0.222c1.332 0 2.887 0.074 4.664 0.222 1.777 0.296 3.627 0.814 5.552 1.555s3.479 1.777 4.664 3.109c0.888 1.036 1.555 2.517 1.999 4.441 0.592 2.073 0.888 3.997 0.888 5.774 0 1.629-0.296 3.183-0.888 4.664-0.444 1.48-1.184 2.739-2.221 3.775-2.221 2.073-4.664 3.553-7.328 4.441zM486.482 577.526c-2.961 3.849-6.588 7.18-10.882 9.993 5.626 3.405 9.845 7.773 12.658 13.102 2.961 5.33 4.589 10.882 4.886 16.655 0.296 5.922-0.74 11.696-3.109 17.322-2.221 5.774-5.7 10.808-10.437 15.101-1.48 1.777-3.479 3.257-5.996 4.441-2.517 1.332-4.886 2.369-7.106 3.109-4.738 1.777-9.771 2.961-15.101 3.553-5.182 0.74-10.215 1.184-15.101 1.332-3.109 0.148-6.218 0.148-9.327 0h-8.883c-3.849 0-7.551-0.148-11.104-0.444-3.553-0.148-6.736-0.814-9.549-1.999-2.813-1.036-5.108-2.739-6.884-5.108-1.629-2.221-2.443-5.404-2.443-9.549v-126.137c0-1.332 0.296-2.665 0.888-3.997 0.444-2.369 1.184-4.515 2.221-6.44 1.184-1.777 3.035-3.035 5.552-3.775 5.774-1.184 11.696-1.777 17.766-1.777 6.218-0.148 12.214-0.148 17.988 0 4.589 0 9.771 0.296 15.545 0.888s10.808 1.406 15.101 2.443c7.995 1.629 14.435 4.367 19.32 8.217 5.034 3.997 8.661 8.587 10.882 13.768 2.369 5.33 3.479 11.030 3.331 17.1 0 6.218-0.962 12.362-2.887 18.432-1.777 5.478-4.219 10.067-7.328 13.768zM450.729 530.224c-4.738-0.74-9.401-1.258-13.991-1.555-3.701-0.148-7.106 0.074-10.215 0.666s-5.478 1.703-7.106 3.331c-1.629 1.629-2.443 3.627-2.443 5.996 0.148 2.517 0.222 4.812 0.222 6.884 0 3.553 0.148 7.254 0.444 11.104s0.296 7.699 0 11.548c0 2.073 0.296 3.627 0.888 4.664s1.48 1.703 2.665 1.999c1.332 0.444 2.813 0.666 4.441 0.666 1.777 0.148 3.701 0.222 5.774 0.222 4.293 0 8.661-0.444 13.102-1.332 4.441-0.74 8.365-2.443 11.77-5.108 2.517-1.777 4.515-4.219 5.996-7.328 1.629-2.961 2.591-6.144 2.887-9.549 0.444-3.257 0.222-6.514-0.666-9.771-0.74-3.109-2.073-5.848-3.997-8.217-1.777-2.073-5.034-3.479-9.771-4.219zM429.632 635.487c3.109 0 6.958-0.074 11.548-0.222 6.958-0.296 12.436-1.777 16.433-4.441 4.145-2.517 5.922-7.106 5.33-13.768-0.444-5.33-2.147-9.401-5.108-12.214-2.813-2.665-6.884-4.441-12.214-5.33-2.369-0.444-5.182-0.814-8.439-1.11-3.109-0.296-6.144-0.296-9.105 0-2.813 0.296-5.182 1.11-7.106 2.443-1.925 1.48-2.887 3.701-2.887 6.662v7.995c0.148 2.813 0.222 5.626 0.222 8.439-0.148 3.405 0.074 5.922 0.666 7.55 0.74 1.777 1.925 2.887 3.553 3.331 1.777 0.592 4.145 0.814 7.106 0.666zM577.894 662.357c-7.995 0.444-16.952-1.184-26.871-4.886-6.218-2.369-11.696-5.922-16.433-10.659-4.589-4.589-8.513-9.771-11.77-15.545s-5.774-11.77-7.55-17.988c-1.629-6.218-2.665-12.066-3.109-17.544-0.444-5.922-0.444-12.14 0-18.654s1.48-13.028 3.109-19.542c1.629-6.366 3.923-12.51 6.884-18.432 2.961-5.774 6.736-10.882 11.326-15.323 3.701-3.701 7.773-6.81 12.214-9.327 4.589-2.369 9.327-4.219 14.213-5.552 4.886-1.184 9.845-1.851 14.879-1.999 5.034 0 9.919 0.592 14.657 1.777 6.958 1.629 13.324 4.441 19.098 8.439 5.922 3.997 10.733 9.179 14.435 15.545 1.629 2.813 3.035 5.626 4.219 8.439s2.221 5.922 3.109 9.327c1.48 5.034 2.517 10.511 3.109 16.433 0.74 5.922 0.962 11.918 0.666 17.988-0.148 6.218-0.814 12.436-1.999 18.654s-2.887 12.14-5.108 17.766c-2.813 7.55-6.514 14.361-11.104 20.431-4.441 6.070-9.845 10.882-16.211 14.435-6.366 3.701-13.62 5.774-21.763 6.218zM605.209 585.964c0.296-8.735-0.444-16.581-2.221-23.54-0.888-4.145-2.221-7.847-3.997-11.104-4.293-9.031-10.511-14.435-18.654-16.211-5.034-1.184-10.141-0.962-15.323 0.666-5.034 1.777-9.475 4.886-13.324 9.327-2.517 2.961-4.515 6.292-5.996 9.993-1.48 3.849-2.665 7.847-3.553 11.992-0.74 4.293-1.184 8.513-1.332 12.658-0.148 4.293-0.074 8.365 0.222 12.214 0.148 3.553 0.592 7.254 1.332 11.104 0.888 3.849 1.999 7.55 3.331 11.104 1.48 3.553 3.331 6.736 5.552 9.549 2.369 2.813 5.182 5.034 8.439 6.662 5.478 2.665 10.437 3.997 14.879 3.997s8.291-0.962 11.548-2.887c3.405-1.925 6.292-4.738 8.661-8.439 2.517-3.553 4.589-7.699 6.218-12.436 2.517-7.699 3.923-15.915 4.219-24.65zM718.424 662.357c-7.995 0.444-16.952-1.184-26.871-4.886-6.218-2.369-11.696-5.922-16.433-10.659-4.589-4.589-8.513-9.771-11.77-15.545s-5.774-11.77-7.55-17.988c-1.629-6.218-2.665-12.066-3.109-17.544-0.444-5.922-0.444-12.14 0-18.654s1.48-13.028 3.109-19.542c1.629-6.366 3.923-12.51 6.884-18.432 2.961-5.774 6.736-10.882 11.326-15.323 3.701-3.701 7.773-6.81 12.214-9.327 4.589-2.369 9.327-4.219 14.213-5.552 4.886-1.184 9.845-1.851 14.879-1.999 5.034 0 9.919 0.592 14.657 1.777 6.958 1.629 13.324 4.441 19.098 8.439 5.922 3.997 10.733 9.179 14.435 15.545 1.629 2.813 3.035 5.626 4.219 8.439s2.221 5.922 3.109 9.327c1.48 5.034 2.517 10.511 3.109 16.433 0.74 5.922 0.962 11.918 0.666 17.988-0.148 6.218-0.814 12.436-1.999 18.654s-2.887 12.14-5.108 17.766c-2.813 7.55-6.514 14.361-11.104 20.431-4.441 6.070-9.845 10.882-16.211 14.435-6.366 3.701-13.62 5.774-21.763 6.218zM745.739 585.964c0.296-8.735-0.444-16.581-2.221-23.54-0.888-4.145-2.221-7.847-3.997-11.104-4.293-9.031-10.511-14.435-18.654-16.211-5.034-1.184-10.141-0.962-15.323 0.666-5.034 1.777-9.475 4.886-13.324 9.327-2.517 2.961-4.515 6.292-5.996 9.993-1.48 3.849-2.665 7.847-3.553 11.992-0.74 4.293-1.184 8.513-1.332 12.658-0.148 4.293-0.074 8.365 0.222 12.214 0.148 3.553 0.592 7.254 1.332 11.104 0.888 3.849 1.999 7.55 3.331 11.104 1.48 3.553 3.331 6.736 5.552 9.549 2.369 2.813 5.182 5.034 8.439 6.662 5.478 2.665 10.437 3.997 14.879 3.997s8.291-0.962 11.548-2.887c3.405-1.925 6.292-4.738 8.661-8.439 2.517-3.553 4.589-7.699 6.218-12.436 2.517-7.699 3.923-15.915 4.219-24.65zM900.988 507.573c0.74 0.592 1.555 1.258 2.443 1.999 1.777 1.184 3.035 2.961 3.775 5.33 1.036 2.221 0.962 4.441-0.222 6.662-0.888 2.961-2.443 5.7-4.664 8.217-0.888 1.184-1.851 2.369-2.887 3.553-1.036 1.332-2.147 2.591-3.331 3.775l-0.666 0.666c-3.553 4.145-7.18 8.217-10.882 12.214-3.701 4.145-7.55 8.291-11.548 12.436l-4.886 4.886c-1.925 2.073-3.997 4.219-6.218 6.44-2.221 2.369-4.589 4.738-7.106 7.106-2.369 2.517-4.664 4.886-6.884 7.106l41.528 42.416 2.887 2.887c0.592 0.74 1.184 1.406 1.777 1.999 0.74 0.592 1.406 1.258 1.999 1.999 0.74 0.74 1.406 1.48 1.999 2.221s1.258 1.555 1.999 2.443c0.592 0.74 1.11 1.48 1.555 2.221l1.332 2.221c0.592 1.332 0.888 2.813 0.888 4.441-0.296 2.073-1.036 3.627-2.221 4.664-0.444 0.74-1.036 1.332-1.777 1.777-0.74 0.592-1.48 1.258-2.221 1.999-1.036 0.74-2.147 1.332-3.331 1.777-1.036 0.444-2.221 0.74-3.553 0.888-2.813 0.296-5.256-0.222-7.328-1.555-3.257-1.036-5.996-2.813-8.217-5.33-1.184-1.036-2.443-2.147-3.775-3.331-1.184-1.036-2.369-2.147-3.553-3.331l-0.666-0.666c-3.997-3.849-7.995-7.773-11.992-11.77-3.849-3.849-7.773-7.847-11.77-11.992-2.221-2.517-4.515-4.886-6.884-7.106-2.221-2.221-4.515-4.367-6.884-6.44l-0.222 27.093v9.105c0 1.036-0.074 1.999-0.222 2.887 0 0.888-0.074 1.777-0.222 2.665-0.296 2.221-0.814 3.923-1.555 5.108-0.296 0.888-0.666 1.629-1.11 2.221-0.296 0.592-0.666 1.11-1.11 1.555-1.629 1.332-3.405 2.147-5.33 2.443-0.888 0.148-1.851 0.296-2.887 0.444-0.888 0.148-1.851 0.222-2.887 0.222-1.332-0.296-2.591-0.592-3.775-0.888-1.036-0.148-2.147-0.592-3.331-1.332-2.221-1.332-3.775-3.109-4.664-5.33-1.332-2.961-1.999-5.922-1.999-8.883-0.148-1.48-0.222-3.035-0.222-4.664 0-1.48-0.148-3.035-0.444-4.664v-0.888c-0.148-5.182-0.222-9.845-0.222-13.991s0.074-8.883 0.222-14.213c0.444-10.956 0.666-21.171 0.666-30.646l0.222-32.645 0.222-17.544v-1.999c0-0.444-0.074-1.036-0.222-1.777v-1.777c0-0.592 0.074-1.184 0.222-1.777 0.148-0.888 0.222-1.703 0.222-2.443 0.148-0.74 0.296-1.555 0.444-2.443 0-1.48 0.444-2.961 1.332-4.441 0.296-0.888 0.444-1.406 0.444-1.555 0.148-0.148 0.37-0.518 0.666-1.11 1.184-2.073 2.517-3.553 3.997-4.441 1.925-0.888 3.775-1.406 5.552-1.555 1.925-0.296 3.997-0.074 6.218 0.666 2.221 0.148 4.145 0.962 5.774 2.443 0.592 0.592 1.11 1.184 1.555 1.777 0.592 0.592 1.036 1.332 1.332 2.221 0.592 1.48 1.11 3.183 1.555 5.108 0.148 0.74 0.296 1.406 0.444 1.999 0.148 0.74 0.222 1.406 0.222 1.999v1.999l-0.666 44.637 42.638-44.637 2.665-2.887c0.592-0.592 1.184-1.258 1.777-1.999s1.258-1.48 1.999-2.221c0.592-0.74 1.258-1.406 1.999-1.999s1.555-1.258 2.443-1.999l2.221-1.777c0.888-0.444 1.703-0.888 2.443-1.332s1.48-0.814 2.221-1.11c0.74-0.296 1.555-0.444 2.443-0.444 2.221-0.296 4.145 0 5.774 0.888 0.888 0.296 1.703 0.666 2.443 1.11zM974.651 960h-875.952c-54.51 0-98.699-44.189-98.699-98.699v-579.855c0-54.511 44.189-98.699 98.699-98.699h291.984v-178.892h-139.823c-18.17 0-32.9-14.731-32.9-32.9s14.73-32.9 32.9-32.9h567.518c18.169 0 32.9 14.731 32.9 32.9s-14.731 32.9-32.9 32.9h-154.217v178.892h310.49c54.511 0 98.699 44.188 98.699 98.699v579.855c0 54.51-44.188 98.699-98.699 98.699zM74.024 285.558v606.586h919.133v-606.586h-919.133z" />
<glyph unicode="&#xe907;" glyph-name="hope" horiz-adv-x="1126" d="M157.867 279.467v-36.267c0-9.425 7.641-17.067 17.067-17.067h401.067v-226.133c0-35.345 28.655-64 64-64s64 28.655 64 64v226.133h405.333c9.425 0 17.067 7.642 17.067 17.067v460.8c0 141.385-114.615 256-256 256h-456.533c-117.744 0-216.922-79.49-246.797-187.733h-150.003c-9.426 0-17.067-7.641-17.067-17.067v-458.667c0-9.425 7.641-17.067 17.067-17.067h140.8zM212.187 772.267h386.294c-28.117 79.544-103.979 136.533-193.148 136.533-89.171 0-165.032-56.989-193.146-136.533zM610.133 279.467h-409.6v-19.2h409.6v19.2zM58.269 738.133h523.87l-260.092-263.778-263.779 263.778zM421.772 526.878l184.095 186.705v-375.156l-184.095 188.45zM397.803 502.566l184.602-188.966h-524.404l187.39 189.141 64.676-64.674c3.215-3.217 7.581-5.018 12.128-5.001s8.9 1.847 12.093 5.086l63.517 64.414zM34.133 713.997v-375.988l187.12 188.868-187.12 187.119z" />
<glyph unicode="&#xe908;" glyph-name="info" horiz-adv-x="990" d="M508.632 946.526c0 7.441-6.033 13.474-13.474 13.474s-13.474-6.032-13.474-13.474v-75.789c0-7.441 6.033-13.474 13.474-13.474s13.474 6.033 13.474 13.474v75.789zM751.458 867.344c3.722 6.444 1.512 14.685-4.931 18.405s-14.686 1.513-18.405-4.932l-37.895-65.636c-3.722-6.444-1.512-14.685 4.931-18.405s14.686-1.512 18.405 4.932l37.895 65.636zM623.512 656.544c1.698 7.246 8.947 11.745 16.192 10.049 17.243-4.036 35.345-17.483 48.93-36.424 13.831-19.285 23.788-45.306 23.788-76.063 0-7.441-6.033-13.474-13.474-13.474s-13.474 6.033-13.474 13.474c0 24.822-8.010 45.4-18.739 60.359-10.974 15.303-24.030 23.751-33.176 25.89-7.245 1.696-11.742 8.944-10.048 16.19zM704 491.789c9.3 0 16.842 7.542 16.842 16.842s-7.542 16.842-16.842 16.842c-9.3 0-16.842-7.542-16.842-16.842s7.542-16.842 16.842-16.842zM188.632 488.421c0-78.248 29.319-149.645 77.57-203.813l-0.29-0.243c3.442-4.083 7.165-7.771 10.995-11.176 14.345-14.545 30.133-27.661 47.132-39.121 11.643-13.443 21.403-32.839 22.908-67.601v-169.836c0-33.485 27.146-60.632 60.632-60.632h175.158c33.485 0 60.632 27.146 60.632 60.632v162.055c1.617 37.679 12.48 59.284 25.28 74.739 1.731 2.088 3.513 4.086 5.346 6.016 77.332 55.646 127.69 146.432 127.69 248.98 0 169.29-137.236 306.526-306.526 306.526s-306.526-137.237-306.526-306.526zM656.347 259.958c-0.401-0.283-0.798-0.563-1.199-0.842-0.492-0.468-1.051-0.947-1.674-1.432-15.939-12.396-24.118-30.693-28.945-47.296l0.313 0.138c-2.483-9.428-7.33-31.404-8.421-51.264v-0.091c-0.101-2.479-0.165-5.009-0.192-7.592h-242.186c0.020 0.957 0.034 1.903 0.040 2.843-0.468 21.012-5.925 45.901-8.61 56.104-7.373 27.658-22.006 41.122-33.206 50.644-13.165 9.452-25.474 20.022-36.791 31.565-49.424 50.429-79.899 119.498-79.899 195.685 0 154.407 125.171 279.579 279.579 279.579s279.579-125.172 279.579-279.579c0-72.017-27.23-137.674-71.953-187.237-13.891-15.39-29.467-29.231-46.437-41.226zM373.895 124.632v-65.684h242.526v65.684h-242.526zM373.895-3.368v35.368h242.526v-35.368c0-18.604-15.080-33.684-33.684-33.684h-175.158c-18.604 0-33.684 15.080-33.684 33.684zM69.174 724.211c3.721 6.444 11.961 8.652 18.405 4.932l65.636-37.895c6.444-3.721 8.652-11.961 4.932-18.405s-11.961-8.652-18.405-4.932l-65.636 37.895c-6.444 3.721-8.652 11.961-4.932 18.405zM885.895 437.895c0 7.441 6.033 13.474 13.474 13.474h75.789c7.441 0 13.474-6.033 13.474-13.474s-6.033-13.474-13.474-13.474h-75.789c-7.441 0-13.474 6.033-13.474 13.474zM13.474 495.158c-7.441 0-13.474-6.033-13.474-13.474s6.032-13.474 13.474-13.474h75.789c7.441 0 13.474 6.033 13.474 13.474s-6.033 13.474-13.474 13.474h-75.789zM249.263 900.932c6.444 3.721 14.685 1.513 18.405-4.932l37.895-65.636c3.721-6.444 1.513-14.685-4.932-18.405s-14.685-1.512-18.405 4.932l-37.895 65.636c-3.721 6.444-1.513 14.685 4.932 18.405zM924.584 678.858c6.444 3.721 8.65 11.961 4.931 18.405-3.722 6.444-11.961 8.652-18.405 4.932l-65.637-37.895c-6.444-3.721-8.653-11.961-4.931-18.405 3.719-6.444 11.961-8.652 18.405-4.932l65.637 37.895z" />
<glyph unicode="&#xe909;" glyph-name="library" horiz-adv-x="1173" d="M543.145 830.513c-2.277 0.795-4.801 0.434-6.769-0.967s-3.136-3.671-3.136-6.090v-74.718c0-3.076 1.882-5.837 4.738-6.958l42.868-16.811c1.746-0.685 3.684-0.685 5.43 0l42.868 16.811c2.855 1.121 4.738 3.882 4.738 6.958v74.718c0 2.419-1.168 4.688-3.136 6.090s-4.487 1.762-6.769 0.967l-40.416-14.090-40.416 14.090zM548.15 753.838v59.109l32.963-11.491c1.585-0.553 3.31-0.553 4.899 0l32.959 11.491v-59.109l-35.411-13.888-35.411 13.888zM581.7 674.021c-57.641 0-104.372 46.833-104.372 104.605s46.73 104.605 104.372 104.605c57.637 0 104.367-46.833 104.367-104.605s-46.73-104.605-104.367-104.605zM581.7 696.436c45.285 0 82.001 36.797 82.001 82.189s-36.715 82.189-82.001 82.189c-45.29 0-82.005-36.797-82.005-82.189s36.715-82.189 82.005-82.189zM186.593 502.17c2.059 0 3.728-1.674 3.728-3.735v-289.533c0-2.061-1.669-3.735-3.728-3.735s-3.727 1.674-3.727 3.735v289.533c0 2.061 1.669 3.735 3.727 3.735zM451.24 498.435c0 2.061-1.67 3.735-3.731 3.735-2.056 0-3.726-1.674-3.726-3.735v-289.533c0-2.061 1.67-3.735 3.726-3.735 2.061 0 3.731 1.674 3.731 3.735v289.533zM708.43 502.17c2.061 0 3.726-1.674 3.726-3.735v-289.533c0-2.061-1.666-3.735-3.726-3.735-2.056 0-3.726 1.674-3.726 3.735v289.533c0 2.061 1.67 3.735 3.726 3.735zM973.076 498.435c0 2.061-1.67 3.735-3.726 3.735-2.061 0-3.731-1.674-3.731-3.735v-289.533c0-2.061 1.67-3.735 3.731-3.735 2.056 0 3.726 1.674 3.726 3.735v289.533zM590.427 956.268l492.021-255.908c4.937-2.57 8.039-7.685 8.039-13.264v-52.303c0-8.253-6.675-14.943-14.91-14.943h-29.819v-44.831c0-8.253-6.675-14.944-14.91-14.944h-7.453v-418.418h7.453c8.234 0 14.91-6.692 14.91-14.944v-42.961h39.137c8.234 0 14.91-6.692 14.91-14.944v-39.231h55.912c8.234 0 14.91-6.688 14.91-14.944v-61.64c0-8.251-6.675-14.944-14.91-14.944h-1138.722c-8.234 0-14.91 6.692-14.91 14.944v61.64c0 8.256 6.675 14.944 14.91 14.944h52.184v39.231c0 8.251 6.676 14.944 14.91 14.944h20.501v42.961c0 8.251 6.676 14.944 14.91 14.944h14.91v418.418h-7.455c-8.234 0-14.91 6.69-14.91 14.944v44.831h-26.092c-8.234 0-14.91 6.69-14.91 14.943v52.303c0 5.604 3.128 10.737 8.103 13.295l497.608 255.908c4.296 2.209 9.39 2.197 13.673-0.032zM887.345 83.753v42.961c0 8.251 6.675 14.944 14.91 14.944h14.91v418.418h-7.453c-8.234 0-14.91 6.69-14.91 14.944v44.831h-109.959v-44.831c0-8.253-6.675-14.944-14.91-14.944h-7.457v-418.418h7.457c8.234 0 14.91-6.692 14.91-14.944v-42.961h102.502zM626.429 83.753v42.961c0 8.251 6.675 14.944 14.91 14.944h14.91v418.418h-7.457c-8.234 0-14.91 6.69-14.91 14.944v44.831h-109.959v-44.831c0-8.253-6.675-14.944-14.91-14.944h-7.453v-418.418h7.453c8.234 0 14.91-6.692 14.91-14.944v-42.961h102.506zM365.509 83.753v42.961c0 8.251 6.675 14.944 14.91 14.944h14.91v418.418h-7.455c-8.234 0-14.91 6.69-14.91 14.944v44.831h-109.958v-44.831c0-8.253-6.676-14.944-14.91-14.944h-7.455v-418.418h7.455c8.234 0 14.91-6.692 14.91-14.944v-42.961h102.504zM100.863 649.737h959.806v28.278l-477.146 248.173-482.66-248.22v-28.231zM924.621 589.963h91.319v29.887h-91.319v-29.887zM755.024 619.851h-91.323v-29.887h91.323v29.887zM402.783 589.963h91.321v29.887h-91.321v-29.887zM233.186 619.851h-91.322v-29.887h91.322v29.887zM210.821 560.076h-46.593v-418.418h46.593v418.418zM134.409 85.619h98.776v26.152h-98.776v-26.152zM425.147 560.076v-418.418h46.594v418.418h-46.594zM395.328 111.771v-26.152h98.776v26.152h-98.776zM732.657 560.076h-46.59v-418.418h46.59v418.418zM656.248 85.619h98.776v26.152h-98.776v-26.152zM946.983 560.076v-418.418h46.594v418.418h-46.594zM917.164 111.771v-26.152h98.776v26.152h-98.776zM1069.987 29.579v24.287h-970.988v-24.287h970.988zM31.906-0.304v-31.757h1108.903v31.757h-1108.903z" />
<glyph unicode="&#xe90a;" glyph-name="like" horiz-adv-x="970" d="M165.83 790.024v-78.769c0-13.738 11.137-24.874 24.874-24.874h402.138c13.739 0 24.874 11.137 24.874 24.874v78.769c0 13.738-11.135 24.874-24.874 24.874h-402.138c-13.738 0-24.874-11.137-24.874-24.874zM198.996 719.547v62.186h385.555v-62.186h-385.555zM783.547 945.767c0 7.861-7.425 14.233-16.583 14.233h-692.34c-41.213 0-74.623-28.676-74.623-64.049v-889.473l0.109 0.070c2.117-39.318 34.668-70.548 74.514-70.548h692.34c9.158 0 16.583 7.425 16.583 16.583v140.955c0 0.323-0.008 0.647-0.029 0.966 0.021 0.274 0.029 0.551 0.029 0.829v106.902l62.692 50.118c0.066 0.050 0.129 0.104 0.191 0.153 0.070 0.058 0.141 0.116 0.211 0.178 10.037 8.441 65.349 59.077 97.616 116.943 16.011 28.709 28.32 62.646 22.76 95.53-5.924 35.032-30.898 62.916-76.224 80.493-0.663 0.257-1.339 0.48-2.027 0.668-32.959 9.009-63.223-2.040-85.759-16.177-7.010-4.394-13.528-9.241-19.46-14.191v429.814zM74.623 924.417h667.466v-398.543c-1.53 1.012-3.080 2.007-4.652 2.973-21.077 13.001-48.833 23.625-77.928 17.806-35.471-7.093-81.439-32.946-86.887-87.297-5.195-51.851 28.465-119.323 121.844-206.002 0.236-0.22 0.481-0.439 0.73-0.647 23.258-19.634 37.793-31.732 46.893-39.202v-96.82h-667.466c-18.317 0-33.166 12.744-33.166 28.465v750.802c0 15.722 14.849 28.466 33.166 28.466zM750.381 76.955v-45.603h-665.393c-3.434 0-6.219-2.786-6.219-6.219s2.784-6.219 6.219-6.219h665.393v-49.749h-675.757c-22.896 0-41.457 18.561-41.457 41.457v24.874c0 22.897 18.561 41.457 41.457 41.457h675.757zM825.033 495.025c17.035 10.684 34.729 15.866 51.826 11.562 34.998-13.839 46.474-31.752 49.281-48.335 3.192-18.896-3.644-42.527-18.092-68.434-28.444-51.009-78.773-97.508-87.915-105.256l-50.288-40.201c-8.652 7.081-23.187 19.158-47.531 39.708-91.658 85.179-111.533 140.276-108.44 171.153 2.848 28.419 27.051 45.433 53.766 50.777 14.415 2.881 31.147-2.023 48.033-12.437 16.629-10.257 30.496-24.116 37.797-33.697 3.897-5.112 9.942-8.126 16.372-8.163 6.426-0.037 12.504 2.91 16.459 7.976 7.4 9.49 21.434 24.497 38.734 35.347zM781.329 235.199c0 0-0.029 0.021-0.083 0.058 0.062-0.041 0.083-0.058 0.083-0.058z" />
<glyph unicode="&#xe90b;" glyph-name="menu" horiz-adv-x="1019" d="M127.373 746.667c0 23.564 19.103 42.667 42.667 42.667h678.902c23.562 0 42.667-19.103 42.667-42.667s-19.105-42.667-42.667-42.667h-678.902c-23.564 0-42.667 19.103-42.667 42.667zM127.373 448c0 23.564 19.103 42.667 42.667 42.667h678.902c23.562 0 42.667-19.103 42.667-42.667 0-23.562-19.105-42.667-42.667-42.667h-678.902c-23.564 0-42.667 19.105-42.667 42.667zM127.373 149.333c0 23.562 19.103 42.667 42.667 42.667h678.902c23.562 0 42.667-19.105 42.667-42.667s-19.105-42.667-42.667-42.667h-678.902c-23.564 0-42.667 19.105-42.667 42.667z" />
<glyph unicode="&#xe90c;" glyph-name="mouse" horiz-adv-x="575" d="M407.463 950.335c-1.962 7.029-9.249 11.137-16.278 9.175s-11.138-9.25-9.176-16.278c2.646-9.474 3.61-25.639-2.699-41.593-6.081-15.384-19.284-31.548-46.876-41.527-35.667-12.901-53.358-38.55-60.454-64.896-4.933-18.318-4.785-36.929-2.505-52.129-150.375-9.244-269.475-134.13-269.475-286.832v-231.226c0-158.717 128.665-287.381 287.381-287.381s287.381 128.664 287.381 287.381v231.226c0 155.77-123.93 282.592-278.57 287.248-2.337 12.685-2.921 29.149 1.305 44.841 5.181 19.238 17.495 37.358 43.928 46.918 34.509 12.482 53.512 34.031 62.461 56.661 8.721 22.061 7.538 44.213 3.577 58.412zM548.335 456.255v-36.335h-191.587v49.548c0 38.311-31.057 69.368-69.368 69.368s-69.368-31.057-69.368-69.368v-49.548h-191.587v36.335c0 144.12 116.833 260.955 260.955 260.955 144.12 0 260.955-116.835 260.955-260.955zM356.748 393.493h191.587v-168.465c0-144.123-116.835-260.955-260.955-260.955-144.121 0-260.955 116.832-260.955 260.955v168.465h191.587v-36.335c0-38.311 31.057-69.368 69.368-69.368s69.368 31.057 69.368 69.368v36.335zM330.323 469.468v-112.31c0-23.717-19.226-42.942-42.942-42.942s-42.942 19.225-42.942 42.942v112.31c0 23.717 19.226 42.942 42.942 42.942s42.942-19.225 42.942-42.942z" />
<glyph unicode="&#xe90d;" glyph-name="search" d="M923.582 6.247l-212.977 212.977-14.911-11.925c-62.045-49.636-140.712-79.302-226.362-79.302-200.295 0-362.666 162.372-362.666 362.669 0 200.295 162.371 362.667 362.666 362.667 200.297 0 362.664-162.372 362.664-362.667 0-85.649-29.661-164.316-79.297-226.361l-11.925-14.911 212.851-212.856c3.96-3.894 6.371-9.246 6.371-15.204 0-11.784-9.549-21.338-21.332-21.338-5.897 0-11.198 2.366-15.083 6.25zM469.333 810.666c-176.731 0-320-143.269-320-320s143.269-319.999 320-319.999c176.73 0 319.999 143.269 319.999 319.999s-143.269 320-319.999 320z" />
<glyph unicode="&#xe90e;" glyph-name="store" horiz-adv-x="1110" d="M415.958 755.225c-2.569 3.34-5.716 6.23-9.441 8.67 4.881 2.954 8.542 6.743 10.982 11.367 2.569 4.624 3.982 9.441 4.239 14.45 0.257 5.138-0.642 10.147-2.697 15.028-1.927 5.009-4.945 9.377-9.055 13.101-1.284 1.541-3.018 2.826-5.202 3.853-2.184 1.156-4.239 2.055-6.165 2.697-4.11 1.541-8.477 2.569-13.101 3.083-4.496 0.642-8.863 1.028-13.101 1.156-2.697 0.128-5.395 0.128-8.092 0h-7.707c-3.34 0-6.551-0.128-9.633-0.385-3.083-0.128-5.844-0.706-8.285-1.734-2.44-0.899-4.431-2.376-5.973-4.431-1.413-1.927-2.119-4.688-2.119-8.285v-109.436c0-1.156 0.257-2.312 0.771-3.468 0.385-2.055 1.028-3.918 1.927-5.587 1.028-1.541 2.633-2.633 4.817-3.275 5.009-1.028 10.147-1.541 15.414-1.541 5.395-0.128 10.597-0.128 15.606 0 3.982 0 8.477 0.257 13.487 0.771s9.377 1.22 13.101 2.119c6.936 1.413 12.523 3.789 16.762 7.129 4.367 3.468 7.514 7.45 9.441 11.945 2.055 4.624 3.018 9.569 2.89 14.836 0 5.395-0.835 10.725-2.505 15.992-1.541 4.753-3.661 8.734-6.358 11.945zM384.938 714.186c-4.11-0.642-8.156-1.092-12.138-1.349-3.211-0.128-6.165 0.064-8.863 0.578s-4.753 1.477-6.165 2.89c-1.413 1.413-2.119 3.147-2.119 5.202 0.128 2.184 0.193 4.174 0.193 5.973 0 3.083 0.128 6.294 0.385 9.633s0.257 6.679 0 10.019c0 1.798 0.257 3.147 0.771 4.046s1.284 1.477 2.312 1.734c1.156 0.385 2.44 0.578 3.853 0.578 1.541 0.128 3.211 0.193 5.009 0.193 3.725 0 7.514-0.385 11.367-1.156 3.853-0.642 7.257-2.119 10.211-4.431 2.184-1.541 3.918-3.661 5.202-6.358 1.413-2.569 2.248-5.331 2.505-8.285 0.385-2.826 0.193-5.652-0.578-8.477-0.642-2.697-1.798-5.074-3.468-7.129-1.541-1.798-4.367-3.018-8.477-3.661zM366.635 805.511c2.697 0 6.037-0.064 10.019-0.193 6.037-0.257 10.789-1.541 14.258-3.853 3.596-2.184 5.138-6.165 4.624-11.945-0.385-4.624-1.862-8.156-4.431-10.597-2.44-2.312-5.973-3.853-10.597-4.624-2.055-0.385-4.496-0.706-7.321-0.963-2.697-0.257-5.331-0.257-7.899 0-2.44 0.257-4.496 0.963-6.165 2.119-1.67 1.284-2.505 3.211-2.505 5.78v6.936c0.128 2.44 0.193 4.881 0.193 7.321-0.128 2.954 0.064 5.138 0.578 6.551 0.642 1.541 1.67 2.505 3.083 2.89 1.541 0.514 3.596 0.706 6.165 0.578zM495.27 828.824c-6.936 0.385-14.707-1.028-23.313-4.239-5.395-2.055-10.147-5.138-14.258-9.248-3.982-3.982-7.386-8.477-10.211-13.487s-5.009-10.211-6.551-15.606c-1.413-5.395-2.312-10.468-2.697-15.221-0.385-5.138-0.385-10.533 0-16.184s1.284-11.303 2.697-16.955c1.413-5.523 3.404-10.854 5.973-15.992 2.569-5.009 5.844-9.441 9.826-13.294 3.211-3.211 6.743-5.909 10.597-8.092 3.982-2.055 8.092-3.661 12.331-4.817 4.239-1.028 8.542-1.606 12.909-1.734 4.367 0 8.606 0.514 12.716 1.541 6.037 1.413 11.56 3.853 16.57 7.321 5.138 3.468 9.312 7.964 12.523 13.487 1.413 2.44 2.633 4.881 3.661 7.321s1.927 5.138 2.697 8.092c1.284 4.367 2.184 9.12 2.697 14.258 0.642 5.138 0.835 10.34 0.578 15.606-0.128 5.395-0.706 10.789-1.734 16.184s-2.505 10.533-4.431 15.414c-2.44 6.551-5.652 12.459-9.633 17.726-3.853 5.266-8.542 9.441-14.065 12.523-5.523 3.211-11.817 5.009-18.882 5.395zM518.968 762.546c0.257-7.578-0.385-14.386-1.927-20.423-0.771-3.596-1.927-6.808-3.468-9.633-3.725-7.835-9.12-12.523-16.184-14.065-4.367-1.028-8.799-0.835-13.294 0.578-4.367 1.541-8.221 4.239-11.56 8.092-2.184 2.569-3.918 5.459-5.202 8.67-1.284 3.34-2.312 6.808-3.083 10.404-0.642 3.725-1.028 7.386-1.156 10.982-0.128 3.725-0.064 7.257 0.193 10.597 0.128 3.083 0.514 6.294 1.156 9.633 0.771 3.34 1.734 6.551 2.89 9.633 1.284 3.083 2.89 5.844 4.817 8.285 2.055 2.44 4.496 4.367 7.321 5.78 4.753 2.312 9.055 3.468 12.909 3.468s7.193-0.835 10.019-2.505c2.954-1.67 5.459-4.11 7.514-7.321 2.184-3.083 3.982-6.679 5.395-10.789 2.184-6.679 3.404-13.808 3.661-21.386zM617.19 828.824c-6.936 0.385-14.707-1.028-23.313-4.239-5.395-2.055-10.147-5.138-14.258-9.248-3.982-3.982-7.386-8.477-10.211-13.487s-5.009-10.211-6.551-15.606c-1.413-5.395-2.312-10.468-2.697-15.221-0.385-5.138-0.385-10.533 0-16.184s1.284-11.303 2.697-16.955c1.413-5.523 3.404-10.854 5.973-15.992 2.569-5.009 5.844-9.441 9.826-13.294 3.211-3.211 6.743-5.909 10.597-8.092 3.982-2.055 8.092-3.661 12.331-4.817 4.239-1.028 8.542-1.606 12.909-1.734 4.367 0 8.606 0.514 12.716 1.541 6.037 1.413 11.56 3.853 16.57 7.321 5.138 3.468 9.312 7.964 12.523 13.487 1.413 2.44 2.633 4.881 3.661 7.321s1.927 5.138 2.697 8.092c1.284 4.367 2.184 9.12 2.697 14.258 0.642 5.138 0.835 10.34 0.578 15.606-0.128 5.395-0.706 10.789-1.734 16.184s-2.505 10.533-4.431 15.414c-2.44 6.551-5.652 12.459-9.633 17.726-3.853 5.266-8.542 9.441-14.065 12.523-5.523 3.211-11.817 5.009-18.882 5.395zM640.888 762.546c0.257-7.578-0.385-14.386-1.927-20.423-0.771-3.596-1.927-6.808-3.468-9.633-3.725-7.835-9.12-12.523-16.184-14.065-4.367-1.028-8.799-0.835-13.294 0.578-4.367 1.541-8.221 4.239-11.56 8.092-2.184 2.569-3.918 5.459-5.202 8.67-1.284 3.34-2.312 6.808-3.083 10.404-0.642 3.725-1.028 7.386-1.156 10.982-0.128 3.725-0.064 7.257 0.193 10.597 0.128 3.083 0.514 6.294 1.156 9.633 0.771 3.34 1.734 6.551 2.89 9.633 1.284 3.083 2.89 5.844 4.817 8.285 2.055 2.44 4.496 4.367 7.321 5.78 4.753 2.312 9.055 3.468 12.909 3.468s7.193-0.835 10.019-2.505c2.954-1.67 5.459-4.11 7.514-7.321 2.184-3.083 3.982-6.679 5.395-10.789 2.184-6.679 3.404-13.808 3.661-21.386zM780.977 700.892c0.899 1.927 0.835 3.853-0.193 5.78-0.771 2.569-2.119 4.945-4.046 7.129-0.771 1.028-1.606 2.055-2.505 3.083-0.899 1.156-1.862 2.248-2.89 3.275l-0.578 0.578c-3.083 3.596-6.23 7.129-9.441 10.597-3.211 3.596-6.551 7.193-10.019 10.789l-4.239 4.239c-1.67 1.798-3.468 3.661-5.395 5.587-1.927 2.055-3.982 4.11-6.165 6.165-2.055 2.184-4.046 4.239-5.973 6.165l36.029 36.8 2.505 2.505c0.514 0.642 1.028 1.22 1.541 1.734 0.642 0.514 1.22 1.092 1.734 1.734 0.642 0.642 1.22 1.284 1.734 1.927s1.092 1.349 1.734 2.119c0.514 0.642 0.963 1.284 1.349 1.927l1.156 1.927c0.514 1.156 0.771 2.44 0.771 3.853-0.257 1.798-0.899 3.147-1.927 4.046-0.385 0.642-0.899 1.156-1.541 1.541-0.642 0.514-1.284 1.092-1.927 1.734-0.899 0.642-1.862 1.156-2.89 1.541-0.899 0.385-1.927 0.642-3.083 0.771-2.44 0.257-4.56-0.193-6.358-1.349-2.826-0.899-5.202-2.44-7.129-4.624-1.028-0.899-2.119-1.862-3.275-2.89-1.028-0.899-2.055-1.862-3.083-2.89l-0.578-0.578c-3.468-3.34-6.936-6.743-10.404-10.211-3.34-3.34-6.743-6.808-10.211-10.404-1.927-2.184-3.918-4.239-5.973-6.165-1.927-1.927-3.918-3.789-5.973-5.587l-0.193 23.506v7.899c0 0.899-0.064 1.734-0.193 2.505 0 0.771-0.064 1.541-0.193 2.312-0.257 1.927-0.706 3.404-1.349 4.431-0.257 0.771-0.578 1.413-0.963 1.927-0.257 0.514-0.578 0.963-0.963 1.349-1.413 1.156-2.954 1.862-4.624 2.119-0.771 0.128-1.606 0.257-2.505 0.385-0.771 0.128-1.606 0.193-2.505 0.193-1.156-0.257-2.248-0.514-3.275-0.771-0.899-0.128-1.862-0.514-2.89-1.156-1.927-1.156-3.275-2.697-4.046-4.624-1.156-2.569-1.734-5.138-1.734-7.707-0.128-1.284-0.193-2.633-0.193-4.046 0-1.284-0.128-2.633-0.385-4.046v-0.771c-0.128-4.496-0.193-8.542-0.193-12.138s0.064-7.707 0.193-12.331c0.385-9.505 0.578-18.368 0.578-26.588l0.193-28.322 0.193-15.221v-1.734c0-0.385-0.064-0.899-0.193-1.541v-1.541c0-0.514 0.064-1.028 0.193-1.541 0.128-0.771 0.193-1.477 0.193-2.119 0.128-0.642 0.257-1.349 0.385-2.119 0-1.284 0.385-2.569 1.156-3.853 0.257-0.771 0.385-1.22 0.385-1.349 0.128-0.128 0.321-0.45 0.578-0.963 1.028-1.798 2.184-3.083 3.468-3.853 1.67-0.771 3.275-1.22 4.817-1.349 1.67-0.257 3.468-0.064 5.395 0.578 1.927 0.128 3.596 0.835 5.009 2.119 0.514 0.514 0.963 1.028 1.349 1.541 0.514 0.514 0.899 1.156 1.156 1.927 0.514 1.284 0.963 2.762 1.349 4.431 0.128 0.642 0.257 1.22 0.385 1.734 0.128 0.642 0.193 1.22 0.193 1.734v1.734l-0.578 38.726 36.992-38.726 2.312-2.505c0.514-0.514 1.028-1.092 1.541-1.734s1.092-1.284 1.734-1.927c0.514-0.642 1.092-1.22 1.734-1.734s1.349-1.092 2.119-1.734l1.927-1.541c0.771-0.385 1.477-0.771 2.119-1.156s1.284-0.706 1.927-0.963c0.642-0.257 1.349-0.385 2.119-0.385 1.927-0.257 3.596 0 5.009 0.771 0.771 0.257 1.477 0.578 2.119 0.963 0.642 0.514 1.349 1.092 2.119 1.734 1.541 1.028 2.633 2.569 3.275 4.624zM503.080 409.149c-7.882 0-14.272-6.39-14.272-14.272v-297.923c0-7.882 6.39-14.272 14.272-14.272h421.017c7.882 0 14.272 6.39 14.272 14.272v297.923c0 7.882-6.39 14.272-14.272 14.272h-421.017zM517.352 322.119v58.486h140.374l-71.969-71.973c-5.577-5.573-5.577-14.607 0-20.184 5.573-5.573 14.607-5.573 20.18 0l92.156 92.156h1.224v-269.38h-115.398l88.025 88.025c5.577 5.577 5.577 14.611 0 20.184-5.573 5.573-14.607 5.573-20.18 0l-108.212-108.209h-26.199v172.128l61.39 56.416c5.805 5.331 6.187 14.361 0.853 20.162-5.331 5.805-14.361 6.187-20.162 0.853l-42.080-38.666zM727.861 111.225v269.38h181.965v-4.792l-127.832-127.836c-5.577-5.573-5.577-14.607 0-20.184 5.573-5.573 14.607-5.573 20.18 0l107.652 107.652v-224.22h-140.374l50.561 50.561c5.577 5.577 5.577 14.611 0 20.184-5.573 5.573-14.607 5.573-20.18 0l-70.749-70.745h-1.224zM180.181 393.093c0 7.882 6.39 14.272 14.272 14.272h206.941c7.882 0 14.272-6.39 14.272-14.272v-57.087c0-7.882-6.39-14.272-14.272-14.272h-206.941c-7.882 0-14.272 6.39-14.272 14.272v57.087zM208.725 378.821v-28.544h178.397v28.544h-178.397zM240.836 250.375c-7.882 0-14.272-6.39-14.272-14.272v-98.118c0-7.882 6.39-14.272 14.272-14.272h114.174c7.882 0 14.272 6.39 14.272 14.272v98.118c0 7.882-6.39 14.272-14.272 14.272h-114.174zM255.108 152.257v69.575h85.631v-69.575h-85.631zM281.868 812.326v123.094c0 6.276 4.1 11.815 10.101 13.649 44.884 13.715 158.238 24.559 268.759-35.115 27.537 12.473 69.764 27.87 115.359 37.315 49.095 10.17 104.28 13.908 149.401-2.429 5.648-2.046 9.412-7.411 9.412-13.419v-123.094h114.174c5.637 0 10.747-3.319 13.037-8.469l144.502-324.684c1.966-4.414 1.563-9.523-1.067-13.576-2.633-4.053-7.139-6.497-11.97-6.497h-80.279v-462.049h44.599c7.882 0 14.272-6.39 14.272-14.272v-32.111c0-7.882-6.39-14.272-14.272-14.272h-1002.592c-7.882 0-14.272 6.39-14.272 14.272v32.111c0 7.882 6.39 14.272 14.272 14.272h46.383v462.049h-87.415c-4.867 0-9.399 2.48-12.022 6.579s-2.976 9.255-0.937 13.672l149.854 324.683c2.333 5.054 7.391 8.291 12.958 8.291h117.742zM681.873 923.318c-46.979-9.732-90.308-26.19-115.559-38.241-4.203-2.006-9.123-1.835-13.176 0.458-96.563 54.635-196.694 49.624-242.727 38.923v-290.115c119.762 1.779 209.884-37.050 249.456-63.046 40.014 28.611 90.24 43.69 136.656 51.124 41.613 6.664 81.253 7.354 109.832 5.608v296.986c-36.19 10.164-80.978 7.315-124.482-1.697zM130.23-2.949h49.951v296.139c0 7.882 6.39 14.272 14.272 14.272h206.941c7.882 0 14.272-6.39 14.272-14.272v-296.139h569.087v462.049h-854.523v-462.049zM208.725-2.949h178.397v281.868h-178.397v-281.868zM998.985 487.643h72.618l-131.8 296.139h-104.905v-171.261c0-4.054-1.723-7.916-4.742-10.621-3.015-2.708-7.043-4.003-11.071-3.568-26.167 2.844-70.734 3.482-118.045-4.096-47.486-7.603-96.174-23.234-131.982-51.749-5.109-4.067-12.324-4.15-17.522-0.203-29.464 22.371-123.961 68.682-254.79 63.115-3.887-0.166-7.673 1.263-10.482 3.955s-4.397 6.413-4.397 10.304v164.125h-108.611l-136.68-296.139h962.408z" />
<glyph unicode="&#xe90f;" glyph-name="user" horiz-adv-x="997" d="M776.084 685.137c0-121.851-79.29-225.184-189.090-261.215 99.35-17.916 191.677-65.737 264.041-138.107 92.861-92.855 145.3-218.57 146.012-349.815h-997.040c0.708 131.244 53.151 256.959 146.008 349.815 73.222 73.227 166.876 121.317 267.562 138.728-108.829 36.587-187.219 139.436-187.219 260.594 0 151.803 123.061 274.863 274.863 274.863 151.805 0 274.863-123.061 274.863-274.863z" />
<glyph unicode="&#xe910;" glyph-name="culture" d="M896 704v128h-896v-704c0-35.346 28.654-64 64-64h864c53.022 0 96 42.978 96 96v544h-128zM832 128h-768v640h768v-640zM128 640h640v-64h-640zM512 512h256v-64h-256zM512 384h256v-64h-256zM512 256h192v-64h-192zM128 512h320v-320h-320z" />
<glyph unicode="&#xe91f;" glyph-name="book" d="M896 832v-832h-672c-53.026 0-96 42.98-96 96s42.974 96 96 96h608v768h-640c-70.398 0-128-57.6-128-128v-768c0-70.4 57.602-128 128-128h768v896h-64zM224.056 128v0c-0.018-0.002-0.038 0-0.056 0-17.672 0-32-14.326-32-32s14.328-32 32-32c0.018 0 0.038 0.002 0.056 0.002v-0.002h607.89v64h-607.89z" />
<glyph unicode="&#xe942;" glyph-name="phone" d="M704 320c-64-64-64-128-128-128s-128 64-192 128-128 128-128 192 64 64 128 128-128 256-192 256-192-192-192-192c0-128 131.5-387.5 256-512s384-256 512-256c0 0 192 128 192 192s-192 256-256 192z" />
<glyph unicode="&#xe947;" glyph-name="location" d="M512 960c-176.732 0-320-143.268-320-320 0-320 320-704 320-704s320 384 320 704c0 176.732-143.27 320-320 320zM512 448c-106.040 0-192 85.96-192 192s85.96 192 192 192 192-85.96 192-192-85.96-192-192-192z" />
<glyph unicode="&#xea91;" glyph-name="facebook" d="M928 960h-832c-52.8 0-96-43.2-96-96v-832c0-52.8 43.2-96 96-96h416v448h-128v128h128v64c0 105.8 86.2 192 192 192h128v-128h-128c-35.2 0-64-28.8-64-64v-64h192l-32-128h-160v-448h288c52.8 0 96 43.2 96 96v832c0 52.8-43.2 96-96 96z" />
<glyph unicode="&#xea92;" glyph-name="instagram" d="M512 867.8c136.8 0 153-0.6 206.8-3 50-2.2 77-10.6 95-17.6 23.8-9.2 41-20.4 58.8-38.2 18-18 29-35 38.4-58.8 7-18 15.4-45.2 17.6-95 2.4-54 3-70.2 3-206.8s-0.6-153-3-206.8c-2.2-50-10.6-77-17.6-95-9.2-23.8-20.4-41-38.2-58.8-18-18-35-29-58.8-38.4-18-7-45.2-15.4-95-17.6-54-2.4-70.2-3-206.8-3s-153 0.6-206.8 3c-50 2.2-77 10.6-95 17.6-23.8 9.2-41 20.4-58.8 38.2-18 18-29 35-38.4 58.8-7 18-15.4 45.2-17.6 95-2.4 54-3 70.2-3 206.8s0.6 153 3 206.8c2.2 50 10.6 77 17.6 95 9.2 23.8 20.4 41 38.2 58.8 18 18 35 29 58.8 38.4 18 7 45.2 15.4 95 17.6 53.8 2.4 70 3 206.8 3zM512 960c-139 0-156.4-0.6-211-3-54.4-2.4-91.8-11.2-124.2-23.8-33.8-13.2-62.4-30.6-90.8-59.2-28.6-28.4-46-57-59.2-90.6-12.6-32.6-21.4-69.8-23.8-124.2-2.4-54.8-3-72.2-3-211.2s0.6-156.4 3-211c2.4-54.4 11.2-91.8 23.8-124.2 13.2-33.8 30.6-62.4 59.2-90.8 28.4-28.4 57-46 90.6-59 32.6-12.6 69.8-21.4 124.2-23.8 54.6-2.4 72-3 211-3s156.4 0.6 211 3c54.4 2.4 91.8 11.2 124.2 23.8 33.6 13 62.2 30.6 90.6 59s46 57 59 90.6c12.6 32.6 21.4 69.8 23.8 124.2 2.4 54.6 3 72 3 211s-0.6 156.4-3 211c-2.4 54.4-11.2 91.8-23.8 124.2-12.6 34-30 62.6-58.6 91-28.4 28.4-57 46-90.6 59-32.6 12.6-69.8 21.4-124.2 23.8-54.8 2.6-72.2 3.2-211.2 3.2v0zM512 711c-145.2 0-263-117.8-263-263s117.8-263 263-263 263 117.8 263 263c0 145.2-117.8 263-263 263zM512 277.4c-94.2 0-170.6 76.4-170.6 170.6s76.4 170.6 170.6 170.6c94.2 0 170.6-76.4 170.6-170.6s-76.4-170.6-170.6-170.6zM846.8 721.4c0-33.91-27.49-61.4-61.4-61.4s-61.4 27.49-61.4 61.4c0 33.91 27.49 61.4 61.4 61.4s61.4-27.49 61.4-61.4z" />
<glyph unicode="&#xea9d;" glyph-name="youtube" d="M1013.8 652.8c0 0-10 70.6-40.8 101.6-39 40.8-82.6 41-102.6 43.4-143.2 10.4-358.2 10.4-358.2 10.4h-0.4c0 0-215 0-358.2-10.4-20-2.4-63.6-2.6-102.6-43.4-30.8-31-40.6-101.6-40.6-101.6s-10.2-82.8-10.2-165.8v-77.6c0-82.8 10.2-165.8 10.2-165.8s10-70.6 40.6-101.6c39-40.8 90.2-39.4 113-43.8 82-7.8 348.2-10.2 348.2-10.2s215.2 0.4 358.4 10.6c20 2.4 63.6 2.6 102.6 43.4 30.8 31 40.8 101.6 40.8 101.6s10.2 82.8 10.2 165.8v77.6c-0.2 82.8-10.4 165.8-10.4 165.8zM406.2 315.2v287.8l276.6-144.4-276.6-143.4z" />
</font>
</defs>
</svg>
