<svg width="86" height="52" viewBox="0 0 86 52" fill="none" xmlns="http://www.w3.org/2000/svg">
<path d="M2.39995 51.75L0.449951 50.65V46.13L2.39995 47.23L4.34995 46.13V50.65L2.39995 51.75Z" fill="#0093D0"/>
<path d="M9.77007 51.75L7.82007 50.65V46.13L9.77007 47.23L11.7201 46.13V50.65L9.77007 51.75Z" fill="#0093D0"/>
<path d="M17.1399 51.75L15.1899 50.65V46.13L17.1399 47.23L19.0899 46.13V50.65L17.1399 51.75Z" fill="#0093D0"/>
<path d="M24.5101 51.75L22.5601 50.65V46.13L24.5101 47.23L26.4601 46.13V50.65L24.5101 51.75Z" fill="#0093D0"/>
<path d="M31.8799 51.75L29.9299 50.65V46.13L31.8799 47.23L33.8299 46.13V50.65L31.8799 51.75Z" fill="#0093D0"/>
<path d="M53.99 51.75L52.04 50.65V46.13L53.99 47.23L55.94 46.13V50.65L53.99 51.75Z" fill="#0093D0"/>
<path d="M61.3599 51.75L59.4099 50.65V46.13L61.3599 47.23L63.3099 46.13V50.65L61.3599 51.75Z" fill="#0093D0"/>
<path d="M68.73 51.75L66.78 50.65V46.13L68.73 47.23L70.68 46.13V50.65L68.73 51.75Z" fill="#0093D0"/>
<path d="M76.0999 51.75L74.1499 50.65V46.13L76.0999 47.23L78.0499 46.13V50.65L76.0999 51.75Z" fill="#0093D0"/>
<path d="M83.48 51.75L81.52 50.65V46.13L83.48 47.23L85.43 46.13V50.65L83.48 51.75Z" fill="#0093D0"/>
<path d="M2.39995 42.52L0.449951 41.42V36.9L2.39995 38L4.34995 36.9V41.42L2.39995 42.52Z" fill="#0093D0"/>
<path d="M9.77007 42.52L7.82007 41.42V36.9L9.77007 38L11.7201 36.9V41.42L9.77007 42.52Z" fill="#0093D0"/>
<path d="M17.1399 42.52L15.1899 41.42V36.9L17.1399 38L19.0899 36.9V41.42L17.1399 42.52Z" fill="#0093D0"/>
<path d="M24.5101 42.52L22.5601 41.42V36.9L24.5101 38L26.4601 36.9V41.42L24.5101 42.52Z" fill="#0093D0"/>
<path d="M31.8799 42.52L29.9299 41.42V36.9L31.8799 38L33.8299 36.9V41.42L31.8799 42.52Z" fill="#0093D0"/>
<path d="M53.99 42.52L52.04 41.42V36.9L53.99 38L55.94 36.9V41.42L53.99 42.52Z" fill="#0093D0"/>
<path d="M61.3599 42.52L59.4099 41.42V36.9L61.3599 38L63.3099 36.9V41.42L61.3599 42.52Z" fill="#0093D0"/>
<path d="M68.73 42.52L66.78 41.42V36.9L68.73 38L70.68 36.9V41.42L68.73 42.52Z" fill="#0093D0"/>
<path d="M76.0999 42.52L74.1499 41.42V36.9L76.0999 38L78.0499 36.9V41.42L76.0999 42.52Z" fill="#0093D0"/>
<path d="M83.48 42.52L81.52 41.42V36.9L83.48 38L85.43 36.9V41.42L83.48 42.52Z" fill="#0093D0"/>
<path d="M2.39995 33.3001L0.449951 32.1901V27.6801L2.39995 28.7801L4.34995 27.6801V32.1901L2.39995 33.3001Z" fill="#0093D0"/>
<path d="M9.77007 33.3001L7.82007 32.1901V27.6801L9.77007 28.7801L11.7201 27.6801V32.1901L9.77007 33.3001Z" fill="#0093D0"/>
<path d="M17.1399 33.3001L15.1899 32.1901V27.6801L17.1399 28.7801L19.0899 27.6801V32.1901L17.1399 33.3001Z" fill="#0093D0"/>
<path d="M24.5101 33.3001L22.5601 32.1901V27.6801L24.5101 28.7801L26.4601 27.6801V32.1901L24.5101 33.3001Z" fill="#0093D0"/>
<path d="M31.8799 33.3001L29.9299 32.1901V27.6801L31.8799 28.7801L33.8299 27.6801V32.1901L31.8799 33.3001Z" fill="#0093D0"/>
<path d="M39.25 33.3001L37.3 32.1901V27.6801L39.25 28.7801L41.2001 27.6801V32.1901L39.25 33.3001Z" fill="#0093D0"/>
<path d="M46.6199 33.3001L44.6699 32.1901V27.6801L46.6199 28.7801L48.5699 27.6801V32.1901L46.6199 33.3001Z" fill="#0093D0"/>
<path d="M53.99 33.3001L52.04 32.1901V27.6801L53.99 28.7801L55.94 27.6801V32.1901L53.99 33.3001Z" fill="#0093D0"/>
<path d="M61.3599 33.3001L59.4099 32.1901V27.6801L61.3599 28.7801L63.3099 27.6801V32.1901L61.3599 33.3001Z" fill="#0093D0"/>
<path d="M68.73 33.3001L66.78 32.1901V27.6801L68.73 28.7801L70.68 27.6801V32.1901L68.73 33.3001Z" fill="#0093D0"/>
<path d="M76.0999 33.3001L74.1499 32.1901V27.6801L76.0999 28.7801L78.0499 27.6801V32.1901L76.0999 33.3001Z" fill="#0093D0"/>
<path d="M83.48 33.3001L81.52 32.1901V27.6801L83.48 28.7801L85.43 27.6801V32.1901L83.48 33.3001Z" fill="#0093D0"/>
<path d="M2.39995 24.07L0.449951 22.9699V18.45L2.39995 19.5499L4.34995 18.45V22.9699L2.39995 24.07Z" fill="#0093D0"/>
<path d="M9.77007 24.07L7.82007 22.9699V18.45L9.77007 19.5499L11.7201 18.45V22.9699L9.77007 24.07Z" fill="#0093D0"/>
<path d="M17.1399 24.07L15.1899 22.9699V18.45L17.1399 19.5499L19.0899 18.45V22.9699L17.1399 24.07Z" fill="#0093D0"/>
<path d="M24.5101 24.07L22.5601 22.9699V18.45L24.5101 19.5499L26.4601 18.45V22.9699L24.5101 24.07Z" fill="#0093D0"/>
<path d="M31.8799 24.07L29.9299 22.9699V18.45L31.8799 19.5499L33.8299 18.45V22.9699L31.8799 24.07Z" fill="#0093D0"/>
<path d="M39.25 24.07L37.3 22.9699V18.45L39.25 19.5499L41.2001 18.45V22.9699L39.25 24.07Z" fill="#0093D0"/>
<path d="M46.6199 24.07L44.6699 22.9699V18.45L46.6199 19.5499L48.5699 18.45V22.9699L46.6199 24.07Z" fill="#0093D0"/>
<path d="M53.99 24.07L52.04 22.9699V18.45L53.99 19.5499L55.94 18.45V22.9699L53.99 24.07Z" fill="#0093D0"/>
<path d="M61.3599 24.07L59.4099 22.9699V18.45L61.3599 19.5499L63.3099 18.45V22.9699L61.3599 24.07Z" fill="#0093D0"/>
<path d="M68.73 24.07L66.78 22.9699V18.45L68.73 19.5499L70.68 18.45V22.9699L68.73 24.07Z" fill="#0093D0"/>
<path d="M76.0999 24.07L74.1499 22.9699V18.45L76.0999 19.5499L78.0499 18.45V22.9699L76.0999 24.07Z" fill="#0093D0"/>
<path d="M83.48 24.07L81.52 22.9699V18.45L83.48 19.5499L85.43 18.45V22.9699L83.48 24.07Z" fill="#0093D0"/>
<path d="M31.8799 14.85L29.9299 13.74V9.22998L31.8799 10.33L33.8299 9.22998V13.74L31.8799 14.85Z" fill="#0093D0"/>
<path d="M39.25 14.85L37.3 13.74V9.22998L39.25 10.33L41.2001 9.22998V13.74L39.25 14.85Z" fill="#0093D0"/>
<path d="M46.6199 14.85L44.6699 13.74V9.22998L46.6199 10.33L48.5699 9.22998V13.74L46.6199 14.85Z" fill="#0093D0"/>
<path d="M53.99 14.85L52.04 13.74V9.22998L53.99 10.33L55.94 9.22998V13.74L53.99 14.85Z" fill="#0093D0"/>
<path d="M39.25 5.62L37.3 4.52V0L39.25 1.1L41.2001 0V4.52L39.25 5.62Z" fill="#0093D0"/>
<path d="M46.6199 5.62L44.6699 4.52V0L46.6199 1.1L48.5699 0V4.52L46.6199 5.62Z" fill="#0093D0"/>
</svg>
