<svg width="207" height="44" viewBox="0 0 207 44" fill="none" xmlns="http://www.w3.org/2000/svg">
<g clip-path="url(#clip0_5_233)">
<path d="M23.8166 26.5515L21.4598 28.9933L11.6757 19.3649C10.4508 21.8377 8.94674 23.9087 7.14809 25.5623C5.36494 27.216 3.72135 28.4524 2.2173 29.2561L0 26.6287C1.79865 25.6551 3.33371 24.5578 4.60517 23.2905C5.89213 22.0541 6.94652 20.725 7.75281 19.3031C8.57461 17.8967 9.17933 16.4594 9.58247 14.9912C9.98562 13.523 10.2027 12.0702 10.2027 10.6329V4.35827H13.924V9.65929C13.924 10.8184 13.8465 11.9157 13.676 12.9666C13.5209 14.0176 13.3038 15.0067 13.0247 15.9494L23.8011 26.5515H23.8166ZM35.4924 42.2536H32.0191V16.4594H21.2892V13.183H32.0191V0H35.4924V42.2536Z" fill="#004B8D"/>
<path d="M81.2184 22.8423H62.9683V27.1079H71.9616V36.9526H54.3162V40.7081H73.0935V43.9846H50.6414V33.8462H68.1937V30.2297H50.3623V27.0924H59.3865V22.8269H41.3225V19.6432H81.2184V22.8269V22.8423ZM71.6205 8.45383C71.6205 9.79841 71.3258 10.9884 70.7366 12.0394C70.1319 13.0903 69.3566 13.9558 68.3798 14.6512C67.3719 15.3776 66.2245 15.9031 64.9065 16.274C63.5885 16.6295 62.2085 16.8149 60.7665 16.8149C59.3245 16.8149 57.9135 16.6449 56.611 16.3049C55.3085 15.9649 54.1921 15.424 53.2463 14.7131C52.285 14.033 51.5097 13.1676 50.936 12.1321C50.3778 11.1121 50.0832 9.89114 50.0832 8.53111C50.0832 7.24835 50.3468 6.08924 50.905 5.03831C51.4477 3.98738 52.2229 3.10645 53.1998 2.38007C54.1611 1.63824 55.293 1.05095 56.58 0.649126C57.867 0.2473 59.2625 0.0463867 60.7665 0.0463867C62.2706 0.0463867 63.6971 0.231845 65.0306 0.618217C66.3641 0.989134 67.5115 1.53005 68.4883 2.25643C69.4652 2.96736 70.225 3.84828 70.7987 4.89921C71.3569 5.95015 71.636 7.14017 71.636 8.5002M67.8681 8.45383C67.8681 6.80016 67.1858 5.50195 65.8058 4.55921C64.4258 3.61646 62.7357 3.15281 60.7665 3.15281C58.7973 3.15281 57.2157 3.61646 55.8512 4.57466C54.4868 5.53286 53.8045 6.81562 53.8045 8.43838C53.8045 10.2157 54.5023 11.5603 55.8978 12.4257C57.2933 13.3067 58.9214 13.7394 60.7665 13.7394C61.6814 13.7394 62.5652 13.6312 63.4335 13.4303C64.3018 13.2294 65.0616 12.9203 65.7128 12.5185C66.3641 12.0703 66.8912 11.5294 67.2944 10.8493C67.682 10.1848 67.8836 9.36567 67.8836 8.43838" fill="#004B8D"/>
<path d="M123.471 36.8135H83.7148V33.5835H101.686V24.9906H105.221V33.5835H123.471V36.8135ZM114.338 23.5378H91.6072V4.88379H114.245V8.11386H95.1115V20.3541H114.354V23.5378H114.338Z" fill="#004B8D"/>
<path d="M148.513 26.5515L146.156 28.9933L136.372 19.3649C135.147 21.8377 133.643 23.9087 131.844 25.5623C130.061 27.216 128.418 28.4524 126.913 29.2561L124.696 26.6287C126.495 25.6551 128.03 24.5578 129.301 23.2905C130.588 22.0541 131.643 20.725 132.464 19.3031C133.271 17.8967 133.891 16.4594 134.294 14.9912C134.697 13.523 134.899 12.0702 134.899 10.6329V4.35827H138.62V9.65929C138.62 10.8184 138.527 11.9157 138.388 12.9666C138.233 14.0176 138 15.0067 137.721 15.9494L148.513 26.5515ZM160.189 42.2536H156.7V16.4594H145.97V13.183H156.7V0H160.189V42.2536Z" fill="#004B8D"/>
<path d="M193.836 24.6814C192.735 24.836 191.634 25.006 190.533 25.176C189.432 25.346 188.161 25.5005 186.719 25.6242C185.246 25.7478 183.524 25.856 181.571 25.9333C179.617 26.0105 177.245 26.0569 174.5 26.0569H165.895V22.8732H174.314V13.5385H177.849V22.8732C178.687 22.8732 179.819 22.8577 181.214 22.8114C182.61 22.765 184.067 22.6877 185.571 22.595C187.106 22.5023 188.61 22.3786 190.083 22.2396C191.556 22.1005 192.812 21.915 193.851 21.6986V24.6969L193.836 24.6814ZM188.037 3.6628C188.037 5.31647 188.006 6.83105 187.944 8.19108C187.882 9.55111 187.789 10.8184 187.664 12.0084C187.54 13.2294 187.37 14.3885 187.122 15.5012C186.889 16.614 186.61 17.7422 186.3 18.9013H182.734C183.23 17.3094 183.618 15.5167 183.881 13.5076C184.16 11.5139 184.315 9.28837 184.377 6.8465H169.321V3.6628H188.052H188.037ZM199.929 43.5364H177.446V29.9824H180.982V40.2445H199.945V43.5364H199.929ZM207 15.8103H199.325V30.8325H195.789V0H199.325V12.5803H207V15.8103Z" fill="#004B8D"/>
</g>
<defs>
<clipPath id="clip0_5_233">
<rect width="207" height="44" fill="white"/>
</clipPath>
</defs>
</svg>
